<mxfile host="app.diagrams.net" modified="2023-03-24T09:42:19.979Z" agent="Mozilla/5.0 (Windows NT 10.0; Win64; x64) AppleWebKit/537.36 (KHTML, like Gecko) Chrome/111.0.0.0 Safari/537.36" etag="yE140q5csQAMthv3U9DW" version="21.1.0" type="device">
  <diagram id="XF_t9uLSmVw5RqpoJNxi" name="Pagina-1">
    <mxGraphModel dx="1272" dy="533" grid="1" gridSize="10" guides="1" tooltips="1" connect="1" arrows="1" fold="1" page="1" pageScale="1" pageWidth="827" pageHeight="1169" math="0" shadow="0">
      <root>
        <mxCell id="0" />
        <mxCell id="1" parent="0" />
        <mxCell id="9Sk0Zq4CYlf2nIy_ZPLd-1" value="" style="rounded=1;whiteSpace=wrap;html=1;" parent="1" vertex="1">
          <mxGeometry x="105" y="180" width="180" height="100" as="geometry" />
        </mxCell>
        <mxCell id="9Sk0Zq4CYlf2nIy_ZPLd-2" value="" style="rhombus;whiteSpace=wrap;html=1;" parent="1" vertex="1">
          <mxGeometry x="630" y="40" width="170" height="120" as="geometry" />
        </mxCell>
        <mxCell id="9Sk0Zq4CYlf2nIy_ZPLd-5" style="edgeStyle=orthogonalEdgeStyle;rounded=0;orthogonalLoop=1;jettySize=auto;html=1;fontSize=36;" parent="1" source="9Sk0Zq4CYlf2nIy_ZPLd-3" edge="1">
          <mxGeometry relative="1" as="geometry">
            <mxPoint x="195" y="180" as="targetPoint" />
          </mxGeometry>
        </mxCell>
        <mxCell id="9Sk0Zq4CYlf2nIy_ZPLd-3" value="&lt;font style=&quot;font-size: 36px;&quot;&gt;start&lt;/font&gt;" style="ellipse;whiteSpace=wrap;html=1;fillColor=#10F700;" parent="1" vertex="1">
          <mxGeometry x="80" y="20" width="230" height="80" as="geometry" />
        </mxCell>
      </root>
    </mxGraphModel>
  </diagram>
</mxfile>
